<svg width="308" height="64" viewBox="0 0 308 64" fill="none" xmlns="http://www.w3.org/2000/svg">
<path d="M100.088 27.9323C106.887 27.9323 111.592 24.0733 111.592 15.4415H99.6758V19.2666H106.372C106.338 19.4697 106.304 19.6728 106.235 19.842C105.617 22.2793 103.179 23.7348 100.088 23.7348C95.967 23.7348 92.7733 20.1467 92.7733 15.9831C92.7733 11.8195 95.967 8.36671 100.088 8.36671C102.148 8.36671 104.037 9.24683 105.376 10.6685L108.845 7.72355C106.784 5.45557 103.659 4 100.088 4C93.2884 4 88 9.34838 88 15.9831C88 22.5839 93.2884 27.9323 100.088 27.9323Z" fill="white"/>
<path d="M122.371 27.9323C126.938 27.9323 130.99 24.6827 130.99 19.7066C130.99 14.6968 126.938 11.4471 122.371 11.4471C117.804 11.4471 113.751 14.6968 113.751 19.7066C113.751 24.6827 117.804 27.9323 122.371 27.9323ZM122.371 23.8025C120.139 23.8025 118.319 22.1439 118.319 19.7066C118.319 17.2355 120.139 15.5769 122.371 15.5769C124.603 15.5769 126.423 17.2355 126.423 19.7066C126.423 22.1439 124.603 23.8025 122.371 23.8025Z" fill="white"/>
<path d="M147.171 27.6276H152.768L146.621 19.0296C150.605 18.2172 152.356 15.2384 152.356 11.921C152.356 8.09591 150.021 4.30465 144.595 4.30465H135.151V27.6276H139.925V19.2666H141.539L147.171 27.6276ZM139.925 8.46826H144.114C146.346 8.46826 147.548 10.1608 147.548 12.0226C147.548 13.8843 146.415 15.4753 143.737 15.4753H139.925V8.46826Z" fill="white"/>
<path d="M171.426 19.4697C171.426 14.6291 167.682 11.4471 163.115 11.4471C158.513 11.4471 154.599 14.6291 154.599 19.7405C154.599 24.615 158.204 27.9323 163.115 27.9323C165.931 27.9323 168.747 26.8491 170.258 24.8519L167.614 22.2454C166.652 23.3625 165.038 24.0056 163.424 24.0056C161.261 24.0056 159.75 22.9901 159.269 21.1622H171.357C171.391 20.4513 171.426 19.9097 171.426 19.4697ZM159.269 18.2849C159.75 16.1523 161.364 15.3061 163.184 15.3061C165.21 15.3061 166.79 16.4231 166.927 18.2849H159.269Z" fill="white"/>
<path d="M180.576 27.9323C183.873 27.9323 187.307 26.3075 187.307 22.9901C187.307 21.7038 186.826 19.3343 182.98 18.3188L180.336 17.6417C179.443 17.4048 178.756 17.0324 178.756 16.2877C178.756 15.4753 179.581 14.9676 180.611 14.9676C181.675 14.9676 182.568 15.543 182.568 16.5924H186.861C186.895 12.8688 183.461 11.4471 180.542 11.4471C176.833 11.4471 174.258 13.7151 174.258 16.1523C174.258 17.811 174.807 20.079 178.928 21.1622L181.057 21.67C182.259 21.9746 182.809 22.3131 182.809 22.9901C182.809 23.9041 181.813 24.4457 180.508 24.4457C178.928 24.4457 178.138 23.464 178.138 22.5501H173.914C173.949 26.0367 177.211 27.9323 180.576 27.9323Z" fill="white"/>
<path d="M200.216 11.8533H196.817V6.06488H192.318V11.8533H189.399V15.2722H192.318V27.6276H196.817V15.2722H200.216V11.8533Z" fill="white"/>
<path d="M214.899 11.8533V13.7489C213.766 12.158 211.602 11.481 209.748 11.481C205.627 11.481 201.884 14.6291 201.884 19.7066C201.884 24.7842 205.627 27.9323 209.748 27.9323C211.534 27.9323 213.766 27.2214 214.899 25.6643V27.6276H219.398V11.8533H214.899ZM210.606 23.8025C208.34 23.8025 206.451 22.0085 206.451 19.7066C206.451 17.3709 208.34 15.6446 210.606 15.6446C212.701 15.6446 214.762 17.2694 214.762 19.7066C214.762 22.11 212.804 23.8025 210.606 23.8025Z" fill="white"/>
<path d="M234.894 11.8533V19.9436C234.894 22.787 232.902 23.6333 231.288 23.6333C229.743 23.6333 228.232 22.5162 228.232 20.0451V11.8533H223.733V20.519C223.699 25.2581 225.897 28 230.086 28C231.666 28 234.207 27.1199 234.894 25.055V27.6276H239.393V11.8533H234.894Z" fill="white"/>
<path d="M253.096 11.4471C251.104 11.4471 249.284 12.5642 248.391 15.2045V11.8533H243.927V27.6276H248.425V22.2116C248.425 17.7094 250.005 15.6107 252.306 15.6107C252.855 15.6107 253.645 15.6784 254.607 16.1862L255.637 11.9549C254.916 11.5825 253.954 11.4471 253.096 11.4471Z" fill="white"/>
<path d="M269.73 11.8533V13.7489C268.597 12.158 266.433 11.481 264.579 11.481C260.458 11.481 256.715 14.6291 256.715 19.7066C256.715 24.7842 260.458 27.9323 264.579 27.9323C266.365 27.9323 268.597 27.2214 269.73 25.6643V27.6276H274.228V11.8533H269.73ZM265.437 23.8025C263.171 23.8025 261.282 22.0085 261.282 19.7066C261.282 17.3709 263.171 15.6446 265.437 15.6446C267.532 15.6446 269.593 17.2694 269.593 19.7066C269.593 22.11 267.635 23.8025 265.437 23.8025Z" fill="white"/>
<path d="M288.077 11.4471C286.497 11.4471 283.956 12.3611 283.269 14.4937V11.8533H278.77V27.6276H283.269V19.5374C283.269 16.6601 285.261 15.8138 286.875 15.8138C288.42 15.8138 289.931 16.9309 289.931 19.4358V27.6276H294.43V18.9619C294.464 14.2228 292.266 11.4471 288.077 11.4471Z" fill="white"/>
<path d="M308 11.8533H304.6V6.06488H300.102V11.8533H297.183V15.2722H300.102V27.6276H304.6V15.2722H308V11.8533Z" fill="white"/>
<path d="M97.0703 50.6797C97.0703 51.7943 96.8828 52.7682 96.5078 53.6016C96.1328 54.4297 95.6016 55.0625 94.9141 55.5C94.2266 55.9375 93.4245 56.1562 92.5078 56.1562C91.612 56.1562 90.8177 55.9375 90.125 55.5C89.4323 55.0573 88.8932 54.4297 88.5078 53.6172C88.1276 52.7995 87.9323 51.8542 87.9219 50.7812V49.9609C87.9219 48.8672 88.112 47.901 88.4922 47.0625C88.8724 46.224 89.4089 45.5833 90.1016 45.1406C90.7995 44.6927 91.5964 44.4688 92.4922 44.4688C93.4036 44.4688 94.2057 44.6901 94.8984 45.1328C95.5964 45.5703 96.1328 46.2083 96.5078 47.0469C96.8828 47.8802 97.0703 48.8516 97.0703 49.9609V50.6797ZM95.5781 49.9453C95.5781 48.5964 95.3073 47.5625 94.7656 46.8438C94.224 46.1198 93.4661 45.7578 92.4922 45.7578C91.5443 45.7578 90.7969 46.1198 90.25 46.8438C89.7083 47.5625 89.4297 48.5625 89.4141 49.8438V50.6797C89.4141 51.987 89.6875 53.0156 90.2344 53.7656C90.7865 54.5104 91.5443 54.8828 92.5078 54.8828C93.4766 54.8828 94.2266 54.5312 94.7578 53.8281C95.2891 53.1198 95.5625 52.1068 95.5781 50.7891V49.9453ZM103.18 48.8438C102.961 48.8073 102.724 48.7891 102.469 48.7891C101.521 48.7891 100.878 49.1927 100.539 50V56H99.0938V47.5469H100.5L100.523 48.5234C100.997 47.7682 101.669 47.3906 102.539 47.3906C102.82 47.3906 103.034 47.4271 103.18 47.5V48.8438ZM104.016 51.7031C104.016 50.3854 104.32 49.3385 104.93 48.5625C105.539 47.7812 106.346 47.3906 107.352 47.3906C108.383 47.3906 109.188 47.7552 109.766 48.4844L109.836 47.5469H111.156V55.7969C111.156 56.8906 110.831 57.7526 110.18 58.3828C109.534 59.013 108.664 59.3281 107.57 59.3281C106.961 59.3281 106.365 59.1979 105.781 58.9375C105.198 58.6771 104.753 58.3203 104.445 57.8672L105.195 57C105.815 57.7656 106.573 58.1484 107.469 58.1484C108.172 58.1484 108.719 57.9505 109.109 57.5547C109.505 57.1589 109.703 56.6016 109.703 55.8828V55.1562C109.125 55.8229 108.336 56.1562 107.336 56.1562C106.346 56.1562 105.544 55.7578 104.93 54.9609C104.32 54.1641 104.016 53.0781 104.016 51.7031ZM105.469 51.8672C105.469 52.8203 105.664 53.5703 106.055 54.1172C106.445 54.6589 106.992 54.9297 107.695 54.9297C108.607 54.9297 109.276 54.5156 109.703 53.6875V49.8281C109.26 49.0208 108.596 48.6172 107.711 48.6172C107.008 48.6172 106.458 48.8906 106.062 49.4375C105.667 49.9844 105.469 50.7943 105.469 51.8672ZM118.562 56C118.479 55.8333 118.411 55.5365 118.359 55.1094C117.688 55.8073 116.885 56.1562 115.953 56.1562C115.12 56.1562 114.435 55.9219 113.898 55.4531C113.367 54.9792 113.102 54.3802 113.102 53.6562C113.102 52.776 113.435 52.0938 114.102 51.6094C114.773 51.1198 115.716 50.875 116.93 50.875H118.336V50.2109C118.336 49.7057 118.185 49.3047 117.883 49.0078C117.581 48.7057 117.135 48.5547 116.547 48.5547C116.031 48.5547 115.599 48.6849 115.25 48.9453C114.901 49.2057 114.727 49.5208 114.727 49.8906H113.273C113.273 49.4688 113.422 49.0625 113.719 48.6719C114.021 48.276 114.427 47.9635 114.938 47.7344C115.453 47.5052 116.018 47.3906 116.633 47.3906C117.607 47.3906 118.37 47.6354 118.922 48.125C119.474 48.6094 119.76 49.2786 119.781 50.1328V54.0234C119.781 54.7995 119.88 55.4167 120.078 55.875V56H118.562ZM116.164 54.8984C116.617 54.8984 117.047 54.7812 117.453 54.5469C117.859 54.3125 118.154 54.0078 118.336 53.6328V51.8984H117.203C115.432 51.8984 114.547 52.4167 114.547 53.4531C114.547 53.9062 114.698 54.2604 115 54.5156C115.302 54.7708 115.69 54.8984 116.164 54.8984ZM123.414 47.5469L123.461 48.6094C124.107 47.7969 124.951 47.3906 125.992 47.3906C127.779 47.3906 128.68 48.3984 128.695 50.4141V56H127.25V50.4062C127.245 49.7969 127.104 49.3464 126.828 49.0547C126.557 48.763 126.133 48.6172 125.555 48.6172C125.086 48.6172 124.674 48.7422 124.32 48.9922C123.966 49.2422 123.69 49.5703 123.492 49.9766V56H122.047V47.5469H123.414ZM132.445 56H131V47.5469H132.445V56ZM130.883 45.3047C130.883 45.0703 130.953 44.8724 131.094 44.7109C131.24 44.5495 131.453 44.4688 131.734 44.4688C132.016 44.4688 132.229 44.5495 132.375 44.7109C132.521 44.8724 132.594 45.0703 132.594 45.3047C132.594 45.5391 132.521 45.7344 132.375 45.8906C132.229 46.0469 132.016 46.125 131.734 46.125C131.453 46.125 131.24 46.0469 131.094 45.8906C130.953 45.7344 130.883 45.5391 130.883 45.3047ZM138.156 54.9766C138.672 54.9766 139.122 54.8203 139.508 54.5078C139.893 54.1953 140.107 53.8047 140.148 53.3359H141.516C141.49 53.8203 141.323 54.2812 141.016 54.7188C140.708 55.1562 140.297 55.5052 139.781 55.7656C139.271 56.026 138.729 56.1562 138.156 56.1562C137.005 56.1562 136.089 55.7734 135.406 55.0078C134.729 54.237 134.391 53.1849 134.391 51.8516V51.6094C134.391 50.7865 134.542 50.0547 134.844 49.4141C135.146 48.7734 135.578 48.276 136.141 47.9219C136.708 47.5677 137.378 47.3906 138.148 47.3906C139.096 47.3906 139.883 47.6745 140.508 48.2422C141.138 48.8099 141.474 49.5469 141.516 50.4531H140.148C140.107 49.9062 139.898 49.4583 139.523 49.1094C139.154 48.7552 138.695 48.5781 138.148 48.5781C137.414 48.5781 136.844 48.8438 136.438 49.375C136.036 49.901 135.836 50.6641 135.836 51.6641V51.9375C135.836 52.9115 136.036 53.6615 136.438 54.1875C136.839 54.7135 137.411 54.9766 138.156 54.9766ZM148.555 48.5703C149.195 47.7839 150.029 47.3906 151.055 47.3906C152.841 47.3906 153.742 48.3984 153.758 50.4141V56H152.312V50.4062C152.307 49.7969 152.167 49.3464 151.891 49.0547C151.62 48.763 151.195 48.6172 150.617 48.6172C150.148 48.6172 149.737 48.7422 149.383 48.9922C149.029 49.2422 148.753 49.5703 148.555 49.9766V56H147.109V44H148.555V48.5703ZM159.43 56.1562C158.284 56.1562 157.352 55.7812 156.633 55.0312C155.914 54.276 155.555 53.2682 155.555 52.0078V51.7422C155.555 50.9036 155.714 50.1562 156.031 49.5C156.354 48.8385 156.802 48.3229 157.375 47.9531C157.953 47.5781 158.578 47.3906 159.25 47.3906C160.349 47.3906 161.203 47.7526 161.812 48.4766C162.422 49.2005 162.727 50.237 162.727 51.5859V52.1875H157C157.021 53.0208 157.263 53.6953 157.727 54.2109C158.195 54.7214 158.789 54.9766 159.508 54.9766C160.018 54.9766 160.451 54.8724 160.805 54.6641C161.159 54.4557 161.469 54.1797 161.734 53.8359L162.617 54.5234C161.909 55.612 160.846 56.1562 159.43 56.1562ZM159.25 48.5781C158.667 48.5781 158.177 48.7917 157.781 49.2188C157.385 49.6406 157.141 50.2344 157.047 51H161.281V50.8906C161.24 50.1562 161.042 49.5885 160.688 49.1875C160.333 48.7812 159.854 48.5781 159.25 48.5781ZM169.625 56C169.542 55.8333 169.474 55.5365 169.422 55.1094C168.75 55.8073 167.948 56.1562 167.016 56.1562C166.182 56.1562 165.497 55.9219 164.961 55.4531C164.43 54.9792 164.164 54.3802 164.164 53.6562C164.164 52.776 164.497 52.0938 165.164 51.6094C165.836 51.1198 166.779 50.875 167.992 50.875H169.398V50.2109C169.398 49.7057 169.247 49.3047 168.945 49.0078C168.643 48.7057 168.198 48.5547 167.609 48.5547C167.094 48.5547 166.661 48.6849 166.312 48.9453C165.964 49.2057 165.789 49.5208 165.789 49.8906H164.336C164.336 49.4688 164.484 49.0625 164.781 48.6719C165.083 48.276 165.49 47.9635 166 47.7344C166.516 47.5052 167.081 47.3906 167.695 47.3906C168.669 47.3906 169.432 47.6354 169.984 48.125C170.536 48.6094 170.823 49.2786 170.844 50.1328V54.0234C170.844 54.7995 170.943 55.4167 171.141 55.875V56H169.625ZM167.227 54.8984C167.68 54.8984 168.109 54.7812 168.516 54.5469C168.922 54.3125 169.216 54.0078 169.398 53.6328V51.8984H168.266C166.495 51.8984 165.609 52.4167 165.609 53.4531C165.609 53.9062 165.76 54.2604 166.062 54.5156C166.365 54.7708 166.753 54.8984 167.227 54.8984ZM174.68 56H173.234V44H174.68V56ZM178.961 45.5V47.5469H180.539V48.6641H178.961V53.9062C178.961 54.2448 179.031 54.5 179.172 54.6719C179.312 54.8385 179.552 54.9219 179.891 54.9219C180.057 54.9219 180.286 54.8906 180.578 54.8281V56C180.198 56.1042 179.828 56.1562 179.469 56.1562C178.823 56.1562 178.336 55.9609 178.008 55.5703C177.68 55.1797 177.516 54.625 177.516 53.9062V48.6641H175.977V47.5469H177.516V45.5H178.961ZM183.68 48.5703C184.32 47.7839 185.154 47.3906 186.18 47.3906C187.966 47.3906 188.867 48.3984 188.883 50.4141V56H187.438V50.4062C187.432 49.7969 187.292 49.3464 187.016 49.0547C186.745 48.763 186.32 48.6172 185.742 48.6172C185.273 48.6172 184.862 48.7422 184.508 48.9922C184.154 49.2422 183.878 49.5703 183.68 49.9766V56H182.234V44H183.68V48.5703ZM193.812 53.8828L195.781 47.5469H197.328L193.93 57.3047C193.404 58.7109 192.568 59.4141 191.422 59.4141L191.148 59.3906L190.609 59.2891V58.1172L191 58.1484C191.49 58.1484 191.87 58.0495 192.141 57.8516C192.417 57.6536 192.643 57.2917 192.82 56.7656L193.141 55.9062L190.125 47.5469H191.703L193.812 53.8828ZM209.75 51.8672C209.75 53.1589 209.453 54.1979 208.859 54.9844C208.266 55.7656 207.469 56.1562 206.469 56.1562C205.401 56.1562 204.576 55.7786 203.992 55.0234L203.922 56H202.594V44H204.039V48.4766C204.622 47.7526 205.427 47.3906 206.453 47.3906C207.479 47.3906 208.284 47.7786 208.867 48.5547C209.456 49.3307 209.75 50.3932 209.75 51.7422V51.8672ZM208.305 51.7031C208.305 50.7188 208.115 49.9583 207.734 49.4219C207.354 48.8854 206.807 48.6172 206.094 48.6172C205.141 48.6172 204.456 49.0599 204.039 49.9453V53.6016C204.482 54.487 205.172 54.9297 206.109 54.9297C206.802 54.9297 207.341 54.6615 207.727 54.125C208.112 53.5885 208.305 52.7812 208.305 51.7031ZM213.148 56H211.703V47.5469H213.148V56ZM211.586 45.3047C211.586 45.0703 211.656 44.8724 211.797 44.7109C211.943 44.5495 212.156 44.4688 212.438 44.4688C212.719 44.4688 212.932 44.5495 213.078 44.7109C213.224 44.8724 213.297 45.0703 213.297 45.3047C213.297 45.5391 213.224 45.7344 213.078 45.8906C212.932 46.0469 212.719 46.125 212.438 46.125C212.156 46.125 211.943 46.0469 211.797 45.8906C211.656 45.7344 211.586 45.5391 211.586 45.3047ZM217.43 45.5V47.5469H219.008V48.6641H217.43V53.9062C217.43 54.2448 217.5 54.5 217.641 54.6719C217.781 54.8385 218.021 54.9219 218.359 54.9219C218.526 54.9219 218.755 54.8906 219.047 54.8281V56C218.667 56.1042 218.297 56.1562 217.938 56.1562C217.292 56.1562 216.805 55.9609 216.477 55.5703C216.148 55.1797 215.984 54.625 215.984 53.9062V48.6641H214.445V47.5469H215.984V45.5H217.43ZM224.211 56.1562C223.065 56.1562 222.133 55.7812 221.414 55.0312C220.695 54.276 220.336 53.2682 220.336 52.0078V51.7422C220.336 50.9036 220.495 50.1562 220.812 49.5C221.135 48.8385 221.583 48.3229 222.156 47.9531C222.734 47.5781 223.359 47.3906 224.031 47.3906C225.13 47.3906 225.984 47.7526 226.594 48.4766C227.203 49.2005 227.508 50.237 227.508 51.5859V52.1875H221.781C221.802 53.0208 222.044 53.6953 222.508 54.2109C222.977 54.7214 223.57 54.9766 224.289 54.9766C224.799 54.9766 225.232 54.8724 225.586 54.6641C225.94 54.4557 226.25 54.1797 226.516 53.8359L227.398 54.5234C226.69 55.612 225.628 56.1562 224.211 56.1562ZM224.031 48.5781C223.448 48.5781 222.958 48.7917 222.562 49.2188C222.167 49.6406 221.922 50.2344 221.828 51H226.062V50.8906C226.021 50.1562 225.823 49.5885 225.469 49.1875C225.115 48.7812 224.635 48.5781 224.031 48.5781ZM234.109 53.7578C234.109 53.3672 233.961 53.0651 233.664 52.8516C233.372 52.6328 232.859 52.4453 232.125 52.2891C231.396 52.1328 230.815 51.9453 230.383 51.7266C229.956 51.5078 229.638 51.2474 229.43 50.9453C229.227 50.6432 229.125 50.2839 229.125 49.8672C229.125 49.1745 229.417 48.5885 230 48.1094C230.589 47.6302 231.339 47.3906 232.25 47.3906C233.208 47.3906 233.984 47.638 234.578 48.1328C235.177 48.6276 235.477 49.2604 235.477 50.0312H234.023C234.023 49.6354 233.854 49.2943 233.516 49.0078C233.182 48.7214 232.76 48.5781 232.25 48.5781C231.724 48.5781 231.312 48.6927 231.016 48.9219C230.719 49.151 230.57 49.4505 230.57 49.8203C230.57 50.1693 230.708 50.4323 230.984 50.6094C231.26 50.7865 231.758 50.9557 232.477 51.1172C233.201 51.2786 233.786 51.4714 234.234 51.6953C234.682 51.9193 235.013 52.1901 235.227 52.5078C235.445 52.8203 235.555 53.2031 235.555 53.6562C235.555 54.4115 235.253 55.0182 234.648 55.4766C234.044 55.9297 233.26 56.1562 232.297 56.1562C231.62 56.1562 231.021 56.0365 230.5 55.7969C229.979 55.5573 229.57 55.224 229.273 54.7969C228.982 54.3646 228.836 53.8984 228.836 53.3984H230.281C230.307 53.8828 230.5 54.2682 230.859 54.5547C231.224 54.8359 231.703 54.9766 232.297 54.9766C232.844 54.9766 233.281 54.8672 233.609 54.6484C233.943 54.4245 234.109 54.1276 234.109 53.7578Z" fill="#FFB84C"/>
<path d="M16.5934 13.695C20.7593 13.7301 23.5848 13.3805 26.3818 12.7125C26.9116 12.5861 27.7858 12.6696 27.8517 12.2296C27.9394 11.6375 27.12 11.3457 26.61 11.0771C23.1428 9.24281 19.42 8.50023 15.5174 8.62758C14.6925 8.655 13.7273 8.76469 13.6681 7.70423C13.6044 6.58071 14.6519 6.3734 15.5097 6.39654C20.563 6.53574 25.4627 7.25298 29.6066 10.5218C29.8348 10.7018 30.0651 11.054 30.3437 10.7609C30.4392 10.6611 30.245 10.1983 30.0893 9.96257C29.4542 8.99382 28.8893 7.94971 28.105 7.11291C25.715 4.5627 23.1428 2.28757 19.3509 2.15046C14.8571 1.98801 10.8886 3.50608 7.06052 5.69258C5.73441 6.4492 5.80899 6.98348 6.67003 8.02079C9.59976 11.544 12.8651 14.3201 16.5934 13.695V13.695ZM38.8236 56.9038C40.8616 57.3066 42.7482 56.1429 44.1544 54.5448C49.5071 48.4614 54.2697 42.0687 54.8445 33.4827C55.1571 28.7958 53.5557 25.1234 49.8669 22.401C46.8132 20.1481 38.3366 21.1164 35.5714 23.9781C34.344 25.2472 33.5049 25.2443 32.0384 24.18C28.8432 21.8624 25.3892 19.9964 21.1959 21.6014C19.533 22.2385 18.1148 23.287 16.7119 24.3466C14.0509 26.3553 12.3343 29.0194 12.1193 32.3353C11.5072 41.7804 14.573 49.8128 21.7761 56.1142C23.3293 57.472 25.3596 58.3572 27.1946 57.6421C30.9514 56.1789 34.7148 57.0058 38.8236 56.9038V56.9038ZM19.0943 0.01069C23.4631 -0.197934 26.2557 2.68474 29.1832 5.24056C30.6618 6.53234 31.5964 8.27538 32.5989 9.94722C32.8073 10.2947 32.8281 10.9498 33.3086 10.9245C33.8406 10.8958 33.6968 10.2673 33.7857 9.88546C34.2497 7.89147 35.3882 6.19604 36.212 4.36175C36.4171 3.90545 36.7144 3.43928 37.3165 3.66545C37.8178 3.85269 37.9834 4.33773 38.0295 4.85106C38.0975 5.62786 37.7114 6.26493 37.401 6.92656C35.646 10.6623 34.9396 14.68 34.2617 18.7033C34.1718 19.2363 34.2113 19.8044 34.2738 20.3477C34.4011 21.4531 34.5963 21.7175 35.9378 21.1704C41.5109 18.8973 47.1949 17.1698 52.6562 21.5641C54.5834 23.1152 55.6397 25.2443 56.2528 27.5528C57.6294 32.7488 57.0854 37.8034 54.7732 42.6501C52.5279 47.3581 49.7451 51.7161 46.1628 55.532C44.3266 57.4874 42.1965 58.9914 39.4839 59.4048C38.6986 59.5243 38.5472 59.7163 38.5406 60.527C38.5242 62.2678 37.3768 63.042 35.8708 62.3903C34.4493 61.7742 32.9905 61.886 31.5558 62.0296C30.6267 62.1229 29.7712 61.9113 29.5452 61.173C29.1635 59.9292 28.4056 60.0047 27.4634 60.1092C22.1436 60.6949 18.8957 57.4789 15.9298 53.777C11.3899 48.1092 9.58881 41.5622 9.6974 34.3898C9.75882 30.3827 10.7899 26.8158 13.8973 24.042C16.8062 21.4455 19.8621 19.2286 23.9578 18.9436C25.806 18.8143 27.436 19.2805 29.0648 20.0714C31.7444 21.3709 31.7971 21.167 32.272 18.3644C32.917 14.5604 31.185 13.8312 27.8528 14.6492C22.8982 15.8669 17.9206 16.3176 12.8432 15.3874C10.3259 14.9259 8.53141 13.4671 6.91353 11.6769C5.65104 10.2806 4.53772 8.77017 2.93958 7.67681C2.04015 7.06015 1.95022 6.04215 3.06025 5.46761C6.1238 3.88274 8.95921 1.83895 12.3946 0.99447C14.6037 0.451521 16.8226 0.113467 19.0943 0.01069" fill="#E4CB44"/>
<path d="M45.1109 23.8851C46.8187 24.4048 48.6691 24.7549 49.7781 26.4208C50.2113 27.0725 50.3462 27.8986 49.5565 28.3472C48.7942 28.7825 48.6428 28.0224 48.2973 27.5027C47.5065 26.3102 46.2297 25.8878 44.8531 25.7626C44.2038 25.7048 43.5731 25.6093 43.6795 24.7438C43.7793 23.9245 44.4549 23.9353 45.1109 23.8851" fill="#E4CB44"/>
<path d="M17.8313 32.7841C17.8313 32.7841 17.3523 32.6243 17.3523 32.1452C17.3523 31.6663 17.9108 31.1881 18.3103 31.5866C18.7089 31.9861 19.4275 32.9432 17.8313 34.5395C16.2351 36.1358 14 35.4874 14 33.5018C14 32.1452 15.0345 28.3146 18.8216 28.3146C21.6618 28.3146 23.8016 35.3581 23.8016 42.4604C23.8016 43.8572 22.6395 44.9744 21.8414 44.9744C21.0433 44.9744 20.2854 43.8178 20.2854 42.4604C20.2854 41.1038 23.8969 26 31.2396 26C33.1548 26 33.5999 28.005 33.6031 28.7237C33.6086 29.6807 33.0745 31.7467 31.0001 31.7467C29.8025 31.7467 29.4031 30.868 29.4031 30.3898C29.4031 29.9109 29.6733 29.0917 30.3115 29.1129C31.2088 29.1428 31.0796 30.1504 31.0796 30.1504C31.0796 30.1504 32.3165 29.7416 32.3165 28.7836C32.3165 27.8256 32.3867 27.1473 31.03 27.1378C26.9592 27.1079 21.8217 39.6479 21.8217 42.1215C21.8217 43.4784 22.4599 43.0295 22.4599 41.9618C22.4599 41.1638 21.0339 29.2726 18.3276 29.2726C15.6214 29.2726 15.0376 31.9057 15.0376 32.9432C15.0376 33.8209 15.6765 34.437 16.1548 34.4598C17.8313 34.5395 17.8313 32.7841 17.8313 32.7841" fill="#E4CB44"/>
<path d="M26.0658 41.9265C26.0658 41.9265 29.738 39.6866 29.738 38.399C29.738 37.1126 28.9391 36.9434 28.5649 36.9434C27.5927 36.9434 25.3481 37.5561 25.3481 42.1059C25.3481 43.6021 25.9784 44.6562 26.8742 44.59C28.49 44.4703 30.5849 41.8963 30.5849 41.8963L30.1965 41.1478C30.1965 41.1478 28.5759 43.3987 27.4083 43.3987C26.2407 43.3987 26.0107 37.9146 28.7941 37.9146C29.2723 37.9146 29.8735 38.8963 26.0658 41.2078C25.2284 41.7168 26.0658 41.9265 26.0658 41.9265" fill="#E4CB44"/>
<path d="M34.372 38.6049C34.372 37.3181 33.5732 37.1489 33.1997 37.1489C32.2268 37.1489 29.9822 37.7616 29.9822 42.3108C29.9822 43.8077 30.6125 44.8617 31.5082 44.7956C33.1249 44.6749 34.6509 42.6102 34.6509 42.6102L34.2618 41.8624C34.2618 41.8624 33.4243 43.4381 32.2567 43.4381C31.0891 43.4381 31.2191 38.0312 33.1848 38.0312C33.6638 38.0312 34.372 39.8922 34.372 38.6049" fill="#E4CB44"/>
<path d="M33.7827 38.4206L34.5911 38.0312C34.5911 38.0312 36.6663 54.0134 31.6382 54.0134C29.9026 54.0134 28.4262 53.3249 28.4262 51.2599C28.4262 47.3986 36.4 41.1928 36.4 41.1928L36.5465 41.8129C36.5465 41.8129 30.0043 46.9803 29.5851 50.661C29.4055 52.2376 30.8827 52.4124 32.0377 52.0973C35 51.2897 33.7827 38.4206 33.7827 38.4206" fill="#E4CB44"/>
<path d="M40.9293 44.5561C38.1758 47.3087 39.2134 41.5229 39.5522 40.725C39.5522 40.725 39.5522 40.0267 38.8541 40.0267C36.8184 40.0267 35.9541 43.8976 37.6369 43.8976C38.7572 43.8976 39.1929 42.6204 39.1929 42.6204L39.3127 43.2987C39.3127 43.2987 38.3948 44.8547 37.4171 44.8547C34.4265 44.8547 35.9407 39.109 38.9739 39.109C40.5496 39.109 40.1903 40.2664 40.1903 40.2664C40.1903 40.2664 40.0911 39.3878 40.47 39.3878C40.849 39.3878 40.9088 39.4478 40.9088 39.7669C40.9088 40.0867 38.4382 46.0481 41.2082 43.279L40.9293 44.5561" fill="#E4CB44"/>
<path d="M41.3091 40.127C41.3091 40.127 41.6802 38.6418 42.2198 38.6418C42.7603 38.6418 42.3214 45.4597 41.3091 46.4722C40.2959 47.4844 40.2959 47.4844 40.2959 47.4844C40.2959 47.4844 41.3091 41.4433 41.3091 40.127Z" fill="#E4CB44"/>
<path d="M41.714 42.3887C41.714 42.3887 43.5024 38.6418 45.123 38.6418C46.7428 38.6418 44.9536 41.2069 44.9536 42.7598C44.9536 44.3118 46.1354 45.0885 46.6751 45.0885C47.2155 45.0885 49.6452 44.8184 49.6452 41.8655C49.6452 40.9367 49.1725 40.3292 48.9031 40.3292C48.6329 40.3292 47.9916 40.7336 47.9916 41.6458C47.9916 42.1523 48.7006 42.6244 48.4643 42.6583C48.2279 42.6921 47.1817 42.8598 47.1817 41.6458C47.1817 40.4311 48.0254 39.6881 48.7676 39.6881C49.5105 39.6881 50.2865 39.8882 50.2865 42.4865C50.2865 47.2798 43.8743 47.248 43.8743 43.7043C43.8743 41.983 45.3586 39.6881 44.6164 39.6881C43.4709 39.6881 41.714 43.7385 41.714 43.7385V42.3887" fill="#E4CB44"/>
</svg>
